<mxfile host="app.diagrams.net" modified="2024-05-25T06:47:00.198Z" agent="Mozilla/5.0 (Windows NT 10.0; Win64; x64) AppleWebKit/537.36 (KHTML, like Gecko) Chrome/125.0.0.0 Safari/537.36" version="24.2.9" etag="E1Gd4ehtZMaSmfmffVg8" type="github">
  <diagram name="第 1 页" id="YDuoKwdHP1osoj3bTQx4">
    <mxGraphModel>
      <root>
        <mxCell id="0" />
        <mxCell id="1" parent="0" />
      </root>
    </mxGraphModel>
  </diagram>
</mxfile>
